<?xml version="1.0" encoding="utf-8"?>
<!-- Generator: Adobe Illustrator 22.1.0, SVG Export Plug-In . SVG Version: 6.00 Build 0)  -->
<svg version="1.1" id="Layer_1" xmlns="http://www.w3.org/2000/svg" xmlns:xlink="http://www.w3.org/1999/xlink" x="0px" y="0px"
	 viewBox="0 0 417 242" style="enable-background:new 0 0 417 242;" xml:space="preserve">
<style type="text/css">
	.st0{stroke:#000000;stroke-miterlimit:10;}
	.st1{fill:none;}
	.st2{fill:#FFFFFF;}
	.st3{font-family:'ArialMT';}
	.st4{font-size:14px;}
	.st5{fill:none;stroke:#000000;stroke-miterlimit:10;}
</style>
<title>website</title>
<rect x="1.5" y="139.5" class="st0" width="100" height="100"/>
<rect x="312.5" y="139.5" class="st0" width="100" height="100"/>
<rect x="313.5" y="1.5" class="st0" width="100" height="100"/>
<rect x="156.5" y="1.5" class="st0" width="100" height="100"/>
<rect x="1.5" y="1.5" class="st0" width="100.1" height="100.1"/>
<image style="overflow:visible;opacity:0.7;enable-background:new    ;" width="1003" height="991" xlink:href="E8E1F068CD938633.png"  transform="matrix(9.981079e-02 0 0 9.981079e-02 313.4059 1.9551)">
</image>
<image style="overflow:visible;opacity:0.7;enable-background:new    ;" width="1017" height="1017" xlink:href="E8E1F068CD938631.jpeg"  transform="matrix(0.1 0 0 0.1 156 1)">
</image>
<image style="overflow:visible;opacity:0.7;enable-background:new    ;" width="1876" height="1862" xlink:href="E8E1F068CD938637.jpg"  transform="matrix(5.268451e-02 0 0 5.387567e-02 2.0751 1.2288)">
</image>
<rect x="-22.7" y="1.9" class="st1" width="149.7" height="99.8"/>
<image style="overflow:visible;opacity:0.7;enable-background:new    ;" width="995" height="995" xlink:href="E8E1F068CD938631.jpg"  transform="matrix(0.1 0 0 0.1 2 140)">
</image>
<image style="overflow:visible;opacity:0.7;enable-background:new    ;" width="1186" height="1186" xlink:href="E8E1F068CD938633.jpeg"  transform="matrix(8.353396e-02 0 0 8.353396e-02 313 140)">
</image>
<text transform="matrix(1 0 0 1 33.32 41.02)" class="st2 st3 st4">Probe </text>
<text transform="matrix(1 0 0 1 6.08 57.82)" class="st2 st3 st4">fabrication and </text>
<text transform="matrix(1 0 0 1 29.04 74.62)" class="st2 st3 st4">release</text>
<rect x="1.8" y="1.6" class="st5" width="100" height="99.9"/>
<text transform="matrix(1 0 0 1 162.77 37.9)" class="st2 st3 st4">Loading mesh </text>
<text transform="matrix(1 0 0 1 160.06 54.7)" class="st2 st3 st4">electronics into </text>
<text transform="matrix(1 0 0 1 182.23 71.5)" class="st2 st3 st4">needles</text>
<rect x="156.5" y="1.5" class="st5" width="100" height="100"/>
<text transform="matrix(1 0 0 1 23.21 193.02)" class="st2 st3 st4">Histology</text>
<rect x="1.8" y="139.6" class="st5" width="100" height="100"/>
<text transform="matrix(1 0 0 1 320.17 183.9)" class="st2 st3 st4">I/O interfacing </text>
<text transform="matrix(1 0 0 1 320.94 200.7)" class="st2 st3 st4">and recording</text>
<rect x="312.5" y="139.5" class="st5" width="100" height="100"/>
<text transform="matrix(1 0 0 1 328.73 40.9)" class="st2 st3 st4">Stereotaxic </text>
<text transform="matrix(1 0 0 1 338.06 57.7)" class="st2 st3 st4">injection</text>
<rect x="313.5" y="1.5" class="st5" width="100" height="100"/>
<line class="st5" x1="107.2" y1="201.5" x2="307.5" y2="201.5"/>
<path d="M114,206.3c0.1-0.2,0.1-0.5-0.1-0.7c0,0,0,0,0,0l-6.4-4.1l6.4-4.1c0.2-0.1,0.3-0.4,0.2-0.7c0,0,0,0,0,0
	c-0.1-0.2-0.5-0.3-0.7-0.1l-7.1,4.5c-0.2,0.1-0.3,0.5-0.1,0.7c0,0.1,0.1,0.1,0.1,0.1l7.1,4.5c0.1,0.1,0.2,0.1,0.3,0.1
	C113.7,206.5,113.9,206.4,114,206.3z"/>
<line class="st5" x1="106" y1="49.5" x2="149.8" y2="49.5"/>
<path d="M143,54.3c-0.1-0.2-0.1-0.5,0.1-0.7c0,0,0,0,0,0l6.4-4.1l-6.4-4.1c-0.2-0.1-0.3-0.4-0.2-0.7c0,0,0,0,0,0
	c0.1-0.2,0.5-0.3,0.7-0.2l7.1,4.5c0.2,0.1,0.3,0.5,0.1,0.7c0,0.1-0.1,0.1-0.1,0.1l-7.1,4.5c-0.1,0.1-0.2,0.1-0.3,0.1
	C143.3,54.5,143.1,54.4,143,54.3z"/>
<line class="st5" x1="107.7" y1="171.5" x2="129.5" y2="171.5"/>
<path d="M114.5,176.3c0.1-0.2,0.1-0.5-0.1-0.7c0,0,0,0,0,0l-6.4-4.1l6.4-4.1c0.2-0.1,0.3-0.4,0.2-0.7c0,0,0,0,0,0
	c-0.1-0.2-0.5-0.3-0.7-0.1l-7.1,4.5c-0.2,0.1-0.3,0.5-0.1,0.7c0,0.1,0.1,0.1,0.1,0.1l7.1,4.5c0.1,0.1,0.2,0.1,0.3,0.1
	C114.3,176.5,114.4,176.4,114.5,176.3z"/>
<line class="st5" x1="363.5" y1="136.3" x2="363.5" y2="105"/>
<path d="M368.3,129.5c-0.2-0.1-0.5-0.1-0.7,0.1c0,0,0,0,0,0l-4.1,6.4l-4.1-6.4c-0.1-0.2-0.4-0.3-0.7-0.2c0,0,0,0,0,0
	c-0.2,0.1-0.3,0.5-0.1,0.7l4.5,7.1c0.1,0.2,0.5,0.3,0.7,0.1c0.1,0,0.1-0.1,0.1-0.1l4.5-7.1c0.1-0.1,0.1-0.2,0.1-0.3
	C368.5,129.7,368.4,129.6,368.3,129.5z"/>
<line class="st5" x1="129.5" y1="118.5" x2="363.5" y2="118.5"/>
<line class="st5" x1="129.5" y1="119" x2="129.5" y2="172"/>
<line class="st5" x1="263" y1="49.5" x2="306.8" y2="49.5"/>
<path d="M300,54.3c-0.1-0.2-0.1-0.5,0.1-0.7c0,0,0,0,0,0l6.5-4.1l-6.5-4.1c-0.2-0.1-0.3-0.4-0.2-0.7c0,0,0,0,0,0
	c0.1-0.2,0.5-0.3,0.7-0.2l7.1,4.5c0.2,0.1,0.3,0.5,0.1,0.7c0,0.1-0.1,0.1-0.1,0.1l-7.1,4.5c-0.1,0.1-0.2,0.1-0.3,0.1
	C300.3,54.5,300.1,54.4,300,54.3z"/>
</svg>
